<svg width="120" height="30" viewBox="0 0 120 30" fill="none" xmlns="http://www.w3.org/2000/svg">
<mask id="mask0_198_16517" style="mask-type:luminance" maskUnits="userSpaceOnUse" x="4" y="3" width="20" height="22">
<path d="M4.71838 24.6938L23.4392 24.6938L23.4392 2.99996L4.71838 2.99996L4.71838 24.6938Z" fill="url(#paint0_linear_198_16517)"/>
</mask>
<g mask="url(#mask0_198_16517)">
<path d="M5.70691 24.1803V7.44653H9.16295L19.9585 19.4762V7.44653H23.3718V24.1809H19.9158L9.12076 12.1272V24.1803H5.70691Z" fill="#0A233F"/>
</g>
<path d="M6.56065 23.9852C7.03215 23.9852 7.41438 23.566 7.41438 23.0489C7.41438 22.5318 7.03215 22.1127 6.56065 22.1127C6.08914 22.1127 5.70691 22.5318 5.70691 23.0489C5.70691 23.566 6.08914 23.9852 6.56065 23.9852Z" fill="#0A233F"/>
<path d="M4.85374 25.8576C5.32524 25.8576 5.70747 25.4384 5.70747 24.9214C5.70747 24.4043 5.32524 23.9851 4.85374 23.9851C4.38223 23.9851 4 24.4043 4 24.9214C4 25.4384 4.38223 25.8576 4.85374 25.8576Z" fill="#0A233F"/>
<path d="M8.26762 23.9852C8.73912 23.9852 9.12135 23.566 9.12135 23.0489C9.12135 22.5318 8.73912 22.1127 8.26762 22.1127C7.79611 22.1127 7.41388 22.5318 7.41388 23.0489C7.41388 23.566 7.79611 23.9852 8.26762 23.9852Z" fill="#0A233F"/>
<path d="M8.26762 22.1126C8.73912 22.1126 9.12135 21.6934 9.12135 21.1764C9.12135 20.6593 8.73912 20.2401 8.26762 20.2401C7.79611 20.2401 7.41388 20.6593 7.41388 21.1764C7.41388 21.6934 7.79611 22.1126 8.26762 22.1126Z" fill="#0A233F"/>
<path d="M6.56065 20.2396C7.03215 20.2396 7.41438 19.8204 7.41438 19.3033C7.41438 18.7862 7.03215 18.3671 6.56065 18.3671C6.08914 18.3671 5.70691 18.7862 5.70691 19.3033C5.70691 19.8204 6.08914 20.2396 6.56065 20.2396Z" fill="#0A233F"/>
<path d="M8.26762 20.2396C8.73912 20.2396 9.12135 19.8204 9.12135 19.3033C9.12135 18.7862 8.73912 18.3671 8.26762 18.3671C7.79611 18.3671 7.41388 18.7862 7.41388 19.3033C7.41388 19.8204 7.79611 20.2396 8.26762 20.2396Z" fill="#0A233F"/>
<path d="M6.56065 18.3671C7.03215 18.3671 7.41438 17.948 7.41438 17.4309C7.41438 16.9138 7.03215 16.4946 6.56065 16.4946C6.08914 16.4946 5.70691 16.9138 5.70691 17.4309C5.70691 17.948 6.08914 18.3671 6.56065 18.3671Z" fill="#0A233F"/>
<path d="M8.26762 18.3671C8.73912 18.3671 9.12135 17.948 9.12135 17.4309C9.12135 16.9138 8.73912 16.4946 8.26762 16.4946C7.79611 16.4946 7.41388 16.9138 7.41388 17.4309C7.41388 17.948 7.79611 18.3671 8.26762 18.3671Z" fill="#0A233F"/>
<path d="M6.56065 16.4946C7.03215 16.4946 7.41438 16.0754 7.41438 15.5583C7.41438 15.0412 7.03215 14.6221 6.56065 14.6221C6.08914 14.6221 5.70691 15.0412 5.70691 15.5583C5.70691 16.0754 6.08914 16.4946 6.56065 16.4946Z" fill="#0A233F"/>
<path d="M8.26762 16.4946C8.73912 16.4946 9.12135 16.0754 9.12135 15.5583C9.12135 15.0412 8.73912 14.6221 8.26762 14.6221C7.79611 14.6221 7.41388 15.0412 7.41388 15.5583C7.41388 16.0754 7.79611 16.4946 8.26762 16.4946Z" fill="#0A233F"/>
<path d="M6.56065 14.622C7.03215 14.622 7.41438 14.2028 7.41438 13.6858C7.41438 13.1687 7.03215 12.7495 6.56065 12.7495C6.08914 12.7495 5.70691 13.1687 5.70691 13.6858C5.70691 14.2028 6.08914 14.622 6.56065 14.622Z" fill="#0A233F"/>
<path d="M8.26762 14.622C8.73912 14.622 9.12135 14.2028 9.12135 13.6858C9.12135 13.1687 8.73912 12.7495 8.26762 12.7495C7.79611 12.7495 7.41388 13.1687 7.41388 13.6858C7.41388 14.2028 7.79611 14.622 8.26762 14.622Z" fill="#0A233F"/>
<path d="M6.56065 12.7496C7.03215 12.7496 7.41438 12.3304 7.41438 11.8133C7.41438 11.2963 7.03215 10.8771 6.56065 10.8771C6.08914 10.8771 5.70691 11.2963 5.70691 11.8133C5.70691 12.3304 6.08914 12.7496 6.56065 12.7496Z" fill="#0A233F"/>
<path d="M8.26762 12.7496C8.73912 12.7496 9.12135 12.3304 9.12135 11.8133C9.12135 11.2963 8.73912 10.8771 8.26762 10.8771C7.79611 10.8771 7.41388 11.2963 7.41388 11.8133C7.41388 12.3304 7.79611 12.7496 8.26762 12.7496Z" fill="#0A233F"/>
<path d="M6.56065 10.877C7.03215 10.877 7.41438 10.4579 7.41438 9.94077C7.41438 9.42369 7.03215 9.00452 6.56065 9.00452C6.08914 9.00452 5.70691 9.42369 5.70691 9.94077C5.70691 10.4579 6.08914 10.877 6.56065 10.877Z" fill="#0A233F"/>
<path d="M6.56065 9.00398C7.03215 9.00398 7.41438 8.5848 7.41438 8.06772C7.41438 7.55065 7.03215 7.13147 6.56065 7.13147C6.08914 7.13147 5.70691 7.55065 5.70691 8.06772C5.70691 8.5848 6.08914 9.00398 6.56065 9.00398Z" fill="#0A233F"/>
<path d="M8.26762 9.00398C8.73912 9.00398 9.12135 8.5848 9.12135 8.06772C9.12135 7.55065 8.73912 7.13147 8.26762 7.13147C7.79611 7.13147 7.41388 7.55065 7.41388 8.06772C7.41388 8.5848 7.79611 9.00398 8.26762 9.00398Z" fill="#0A233F"/>
<path d="M9.97453 10.877C10.446 10.877 10.8283 10.4579 10.8283 9.94077C10.8283 9.42369 10.446 9.00452 9.97453 9.00452C9.50302 9.00452 9.12079 9.42369 9.12079 9.94077C9.12079 10.4579 9.50302 10.877 9.97453 10.877Z" fill="#0A233F"/>
<path d="M11.6814 14.622C12.1529 14.622 12.5352 14.2028 12.5352 13.6858C12.5352 13.1687 12.1529 12.7495 11.6814 12.7495C11.2099 12.7495 10.8277 13.1687 10.8277 13.6858C10.8277 14.2028 11.2099 14.622 11.6814 14.622Z" fill="#0A233F"/>
<path d="M9.97453 12.7496C10.446 12.7496 10.8283 12.3304 10.8283 11.8133C10.8283 11.2963 10.446 10.8771 9.97453 10.8771C9.50302 10.8771 9.12079 11.2963 9.12079 11.8133C9.12079 12.3304 9.50302 12.7496 9.97453 12.7496Z" fill="#0A233F"/>
<path d="M11.6814 12.7496C12.1529 12.7496 12.5352 12.3304 12.5352 11.8133C12.5352 11.2963 12.1529 10.8771 11.6814 10.8771C11.2099 10.8771 10.8277 11.2963 10.8277 11.8133C10.8277 12.3304 11.2099 12.7496 11.6814 12.7496Z" fill="#0A233F"/>
<path d="M13.3883 14.622C13.8598 14.622 14.2421 14.2028 14.2421 13.6858C14.2421 13.1687 13.8598 12.7495 13.3883 12.7495C12.9168 12.7495 12.5346 13.1687 12.5346 13.6858C12.5346 14.2028 12.9168 14.622 13.3883 14.622Z" fill="#0A233F"/>
<path d="M15.0953 18.3671C15.5668 18.3671 15.9491 17.948 15.9491 17.4309C15.9491 16.9138 15.5668 16.4946 15.0953 16.4946C14.6238 16.4946 14.2416 16.9138 14.2416 17.4309C14.2416 17.948 14.6238 18.3671 15.0953 18.3671Z" fill="#0A233F"/>
<path d="M13.3883 16.4946C13.8598 16.4946 14.2421 16.0754 14.2421 15.5583C14.2421 15.0412 13.8598 14.6221 13.3883 14.6221C12.9168 14.6221 12.5346 15.0412 12.5346 15.5583C12.5346 16.0754 12.9168 16.4946 13.3883 16.4946Z" fill="#0A233F"/>
<path d="M15.0953 16.4946C15.5668 16.4946 15.9491 16.0754 15.9491 15.5583C15.9491 15.0412 15.5668 14.6221 15.0953 14.6221C14.6238 14.6221 14.2416 15.0412 14.2416 15.5583C14.2416 16.0754 14.6238 16.4946 15.0953 16.4946Z" fill="#0A233F"/>
<path d="M52.526 15.748L52.549 15.7602L56.9361 8.34045H53.5863L49.9473 14.3238L52.526 15.748Z" fill="#0A233F"/>
<path d="M45.0577 16.8013L45.0402 16.7913L40.7797 24.1826L44.0166 24.1865L47.637 18.2255L45.0577 16.8013Z" fill="#0A233F"/>
<path d="M55.1447 25.6692C55.9494 25.6692 56.6018 25.0054 56.6018 24.1865C56.6018 23.3676 55.9494 22.7037 55.1447 22.7037C54.34 22.7037 53.6877 23.3676 53.6877 24.1865C53.6877 25.0054 54.34 25.6692 55.1447 25.6692Z" fill="#0A233F"/>
<path d="M42.4395 9.82312C43.2442 9.82312 43.8966 9.15928 43.8966 8.34039C43.8966 7.52151 43.2442 6.85767 42.4395 6.85767C41.6348 6.85767 40.9825 7.52151 40.9825 8.34039C40.9825 9.15928 41.6348 9.82312 42.4395 9.82312Z" fill="#0A233F"/>
<path d="M55.1448 22.1272C55.3694 22.1272 55.5815 22.1729 55.7831 22.2421L52.2455 16.2743L49.6371 14.834H47.9472L44.3646 8.94324C44.1098 9.78414 43.3492 10.3998 42.4395 10.3998C42.2258 10.3998 42.0236 10.3568 41.8297 10.2944L45.3383 16.2749L47.9466 17.7158H49.6366L53.2137 23.6038C53.4619 22.7529 54.2275 22.1278 55.1448 22.1278V22.1272Z" fill="#0A233F"/>
<path d="M86.5987 8.2417V18.845C86.5987 20.0154 86.3713 20.8123 85.9176 21.2355C85.4639 21.6593 84.6934 21.8706 83.6068 21.8706H79.9053C78.8181 21.8706 78.0477 21.6587 77.5939 21.2355C77.1402 20.8123 76.9134 20.0154 76.9134 18.845V8.2417H73.8447V18.845C73.8447 20.2 74.0173 21.3242 74.3626 22.2175C74.7072 23.1108 75.2826 23.7766 76.0881 24.2155C76.8936 24.6543 77.9934 24.874 79.3869 24.874H84.1241C85.5176 24.874 86.6179 24.6543 87.4229 24.2155C88.2284 23.7766 88.8037 23.1108 89.149 22.2175C89.4942 21.3247 89.6668 20.2006 89.6668 18.845V8.2417H86.5987ZM74.7226 8.24226H75.167V11.7402H74.7226V8.24226ZM76.5254 12.6207L75.5232 13.6769V15.0849C75.6881 15.1713 75.8021 15.3486 75.8021 15.5561C75.8021 15.8477 75.5774 16.0842 75.3007 16.0842C75.024 16.0842 74.7993 15.8477 74.7993 15.5561C74.7993 15.3486 74.9138 15.1713 75.0788 15.0849V13.4828L76.081 12.4267V8.24226H76.5254V12.6213V12.6207Z" fill="#0A233F"/>
<g opacity="0.7">
<path d="M75.5226 15.0849C75.5868 15.1183 75.6394 15.1685 75.6843 15.2259V13.5062L75.5226 13.6763V15.0843V15.0849Z" fill="#0A233F"/>
<path d="M85.3697 8.2417V18.845C85.3697 20.0154 85.1422 20.8123 84.6885 21.2355C84.2348 21.6593 83.4644 21.8706 82.3777 21.8706H78.6762C77.589 21.8706 76.8186 21.6587 76.3649 21.2355C75.9111 20.8123 75.6843 20.0154 75.6843 18.845V15.8918C75.5922 16.0083 75.4552 16.0842 75.3002 16.0842C75.0234 16.0842 74.7988 15.8477 74.7988 15.5561C74.7988 15.3486 74.9133 15.1713 75.0782 15.0849V13.4828L75.6843 12.8443V8.2417H72.6157V18.845C72.6157 20.2 72.7883 21.3242 73.1335 22.2175C73.4782 23.1108 74.0535 23.7766 74.8596 24.2155C75.6651 24.6543 76.7649 24.874 78.1584 24.874H82.895C84.2885 24.874 85.3888 24.6543 86.1938 24.2155C86.9993 23.7766 87.5747 23.1108 87.9199 22.2175C88.2651 21.3247 88.4377 20.2006 88.4377 18.845V8.2417H85.3697ZM74.7226 8.24226H75.167V11.7402H74.7226V8.24226Z" fill="#0A233F"/>
</g>
<g opacity="0.7">
<path d="M88.0218 8.2417V18.845C88.0218 20.0154 87.7944 20.8123 87.3407 21.2355C86.887 21.6593 86.1165 21.8706 85.0299 21.8706H81.3284C80.2412 21.8706 79.4708 21.6587 79.017 21.2355C78.5633 20.8123 78.3365 20.0154 78.3365 18.845V8.2417H75.2678V13.2826L76.0805 12.4261V8.24226H76.5249V12.6213L75.5226 13.6774V15.0854C75.6876 15.1719 75.8015 15.3492 75.8015 15.5566C75.8015 15.8483 75.5769 16.0847 75.3002 16.0847C75.2892 16.0847 75.2788 16.0819 75.2678 16.0814V18.8461C75.2678 20.2011 75.4404 21.3253 75.7857 22.2186C76.1303 23.1119 76.7057 23.7777 77.5118 24.2166C78.3173 24.6554 79.417 24.8751 80.8105 24.8751H85.5472C86.9407 24.8751 88.041 24.6554 88.846 24.2166C89.6515 23.7777 90.2268 23.1119 90.5721 22.2186C90.9173 21.3258 91.0894 20.2017 91.0894 18.8461V8.2417H88.0213H88.0218Z" fill="#0A233F"/>
</g>
<mask id="mask1_198_16517" style="mask-type:luminance" maskUnits="userSpaceOnUse" x="25" y="7" width="15" height="18">
<path d="M25.607 24.4959V7.39075H39.3725V10.5006H29.2126V14.2802H39.1106V17.3901H29.2126V21.3855H39.3725V24.4954H25.607V24.4959Z" fill="white"/>
</mask>
<g mask="url(#mask1_198_16517)">
<path d="M39.9742 7.46887H25.0349V7.49006H39.9742V7.46887Z" fill="#0A233F"/>
<path d="M39.9742 7.68909H25.0349V7.71028H39.9742V7.68909Z" fill="#0A233F"/>
<path d="M39.9742 7.90991H25.0349V7.9311H39.9742V7.90991Z" fill="#0A233F"/>
<path d="M39.9742 8.13074H25.0349V8.15193H39.9742V8.13074Z" fill="#0A233F"/>
<path d="M39.9742 8.35107H25.0349V8.37226H39.9742V8.35107Z" fill="#0A233F"/>
<path d="M39.9742 8.5719H25.0349V8.59309H39.9742V8.5719Z" fill="#0A233F"/>
<path d="M39.9742 8.79211H25.0349V8.8133H39.9742V8.79211Z" fill="#0A233F"/>
<path d="M39.9742 9.01294H25.0349V9.03413H39.9742V9.01294Z" fill="#0A233F"/>
<path d="M39.9742 9.23376H25.0349V9.25495H39.9742V9.23376Z" fill="#0A233F"/>
<path d="M39.9742 9.45398H25.0349V9.47517H39.9742V9.45398Z" fill="#0A233F"/>
<path d="M39.9742 9.6748H25.0349V9.69599H39.9742V9.6748Z" fill="#0A233F"/>
<path d="M39.9742 9.89563H25.0349V9.91682H39.9742V9.89563Z" fill="#0A233F"/>
<path d="M39.9742 10.116H25.0349V10.1372H39.9742V10.116Z" fill="#0A233F"/>
<path d="M39.9742 10.3368H25.0349V10.358H39.9742V10.3368Z" fill="#0A233F"/>
<path d="M39.9742 10.557H25.0349V10.5782H39.9742V10.557Z" fill="#0A233F"/>
<path d="M39.9742 10.7778H25.0349V10.799H39.9742V10.7778Z" fill="#0A233F"/>
<path d="M39.9742 10.9987H25.0349V11.0198H39.9742V10.9987Z" fill="#0A233F"/>
<path d="M39.9742 11.2189H25.0349V11.2401H39.9742V11.2189Z" fill="#0A233F"/>
<path d="M39.9742 11.4397H25.0349V11.4609H39.9742V11.4397Z" fill="#0A233F"/>
<path d="M39.9742 11.6605H25.0349V11.6817H39.9742V11.6605Z" fill="#0A233F"/>
<path d="M39.9742 11.8809H25.0349V11.902H39.9742V11.8809Z" fill="#0A233F"/>
<path d="M39.9742 12.1016H25.0349V12.1228H39.9742V12.1016Z" fill="#0A233F"/>
<path d="M39.9742 12.3219H25.0349V12.3431H39.9742V12.3219Z" fill="#0A233F"/>
<path d="M39.9742 12.5427H25.0349V12.5639H39.9742V12.5427Z" fill="#0A233F"/>
<path d="M39.9742 12.7635H25.0349V12.7847H39.9742V12.7635Z" fill="#0A233F"/>
<path d="M39.9742 12.9838H25.0349V13.005H39.9742V12.9838Z" fill="#0A233F"/>
<path d="M39.9742 13.2046H25.0349V13.2258H39.9742V13.2046Z" fill="#0A233F"/>
<path d="M39.9742 13.4254H25.0349V13.4466H39.9742V13.4254Z" fill="#0A233F"/>
<path d="M39.9742 13.6456H25.0349V13.6668H39.9742V13.6456Z" fill="#0A233F"/>
<path d="M39.9742 13.8665H25.0349V13.8876H39.9742V13.8665Z" fill="#0A233F"/>
<path d="M39.9742 14.0868H25.0349V14.108H39.9742V14.0868Z" fill="#0A233F"/>
<path d="M39.9742 14.3076H25.0349V14.3288H39.9742V14.3076Z" fill="#0A233F"/>
<path d="M39.9742 14.5284H25.0349V14.5496H39.9742V14.5284Z" fill="#0A233F"/>
<path d="M39.9742 14.7487H25.0349V14.7698H39.9742V14.7487Z" fill="#0A233F"/>
<path d="M39.9742 14.9695H25.0349V14.9907H39.9742V14.9695Z" fill="#0A233F"/>
<path d="M39.9742 15.1903H25.0349V15.2115H39.9742V15.1903Z" fill="#0A233F"/>
<path d="M39.9742 15.4105H25.0349V15.4317H39.9742V15.4105Z" fill="#0A233F"/>
<path d="M39.9742 15.6313H25.0349V15.6525H39.9742V15.6313Z" fill="#0A233F"/>
<path d="M39.9742 15.8517H25.0349V15.8729H39.9742V15.8517Z" fill="#0A233F"/>
<path d="M39.9742 16.0725H25.0349V16.0937H39.9742V16.0725Z" fill="#0A233F"/>
<path d="M39.9742 16.2933H25.0349V16.3145H39.9742V16.2933Z" fill="#0A233F"/>
<path d="M39.9742 16.5135H25.0349V16.5347H39.9742V16.5135Z" fill="#0A233F"/>
<path d="M39.9742 16.7344H25.0349V16.7556H39.9742V16.7344Z" fill="#0A233F"/>
<path d="M39.9742 16.9552H25.0349V16.9764H39.9742V16.9552Z" fill="#0A233F"/>
<path d="M39.9742 17.1754H25.0349V17.1966H39.9742V17.1754Z" fill="#0A233F"/>
<path d="M39.9742 17.3962H25.0349V17.4174H39.9742V17.3962Z" fill="#0A233F"/>
<path d="M39.9742 17.6166H25.0349V17.6378H39.9742V17.6166Z" fill="#0A233F"/>
<path d="M39.9742 17.8374H25.0349V17.8586H39.9742V17.8374Z" fill="#0A233F"/>
<path d="M39.9742 18.0582H25.0349V18.0794H39.9742V18.0582Z" fill="#0A233F"/>
<path d="M39.9742 18.2784H25.0349V18.2996H39.9742V18.2784Z" fill="#0A233F"/>
<path d="M39.9742 18.4993H25.0349V18.5205H39.9742V18.4993Z" fill="#0A233F"/>
<path d="M39.9742 18.7195H25.0349V18.7407H39.9742V18.7195Z" fill="#0A233F"/>
<path d="M39.9742 18.9403H25.0349V18.9615H39.9742V18.9403Z" fill="#0A233F"/>
<path d="M39.9742 19.1611H25.0349V19.1823H39.9742V19.1611Z" fill="#0A233F"/>
<path d="M39.9742 19.3815H25.0349V19.4027H39.9742V19.3815Z" fill="#0A233F"/>
<path d="M39.9742 19.6023H25.0349V19.6235H39.9742V19.6023Z" fill="#0A233F"/>
<path d="M39.9742 19.8231H25.0349V19.8443H39.9742V19.8231Z" fill="#0A233F"/>
<path d="M39.9742 20.0433H25.0349V20.0645H39.9742V20.0433Z" fill="#0A233F"/>
<path d="M39.9742 20.2642H25.0349V20.2854H39.9742V20.2642Z" fill="#0A233F"/>
<path d="M39.9742 20.4844H25.0349V20.5056H39.9742V20.4844Z" fill="#0A233F"/>
<path d="M39.9742 20.7052H25.0349V20.7264H39.9742V20.7052Z" fill="#0A233F"/>
<path d="M39.9742 20.926H25.0349V20.9472H39.9742V20.926Z" fill="#0A233F"/>
<path d="M39.9742 21.1464H25.0349V21.1676H39.9742V21.1464Z" fill="#0A233F"/>
<path d="M39.9742 21.3672H25.0349V21.3884H39.9742V21.3672Z" fill="#0A233F"/>
<path d="M39.9742 21.588H25.0349V21.6092H39.9742V21.588Z" fill="#0A233F"/>
<path d="M39.9742 21.8082H25.0349V21.8294H39.9742V21.8082Z" fill="#0A233F"/>
<path d="M39.9742 22.0291H25.0349V22.0502H39.9742V22.0291Z" fill="#0A233F"/>
<path d="M39.9742 22.2493H25.0349V22.2705H39.9742V22.2493Z" fill="#0A233F"/>
<path d="M39.9742 22.4701H25.0349V22.4913H39.9742V22.4701Z" fill="#0A233F"/>
<path d="M39.9742 22.6909H25.0349V22.7121H39.9742V22.6909Z" fill="#0A233F"/>
<path d="M39.9742 22.9113H25.0349V22.9324H39.9742V22.9113Z" fill="#0A233F"/>
<path d="M39.9742 23.1321H25.0349V23.1533H39.9742V23.1321Z" fill="#0A233F"/>
<path d="M39.9742 23.3528H25.0349V23.374H39.9742V23.3528Z" fill="#0A233F"/>
<path d="M39.9742 23.5731H25.0349V23.5943H39.9742V23.5731Z" fill="#0A233F"/>
<path d="M39.9742 23.7939H25.0349V23.8151H39.9742V23.7939Z" fill="#0A233F"/>
<path d="M39.9742 24.0142H25.0349V24.0353H39.9742V24.0142Z" fill="#0A233F"/>
<path d="M39.9742 24.235H25.0349V24.2562H39.9742V24.235Z" fill="#0A233F"/>
<path d="M39.9742 24.4558H25.0349V24.477H39.9742V24.4558Z" fill="#0A233F"/>
</g>
<path d="M39.1106 14.2808H25.607V17.3906H39.1106V14.2808Z" fill="#0A233F"/>
<mask id="mask2_198_16517" style="mask-type:luminance" maskUnits="userSpaceOnUse" x="25" y="7" width="15" height="18">
<path d="M25.607 24.4959V7.39075H39.3725V10.5006H29.2126V14.2802H39.1106V17.3901H29.2126V21.3855H39.3725V24.4954H25.607V24.4959Z" fill="white"/>
</mask>
<g mask="url(#mask2_198_16517)">
<path d="M39.3725 14.1257H25.607V14.9265H39.3725V14.1257Z" fill="#0A233F"/>
<path d="M39.3725 13.3774H25.607V14.1157H39.3725V13.3774Z" fill="#0A233F"/>
<path d="M39.3725 12.629H25.607V13.3043H39.3725V12.629Z" fill="#0A233F"/>
<path d="M39.3725 11.8807H25.607V12.493H39.3725V11.8807Z" fill="#0A233F"/>
<path d="M39.3725 11.1324H25.607V11.6817H39.3725V11.1324Z" fill="#0A233F"/>
<path d="M39.3725 10.384H25.607V10.8708H39.3725V10.384Z" fill="#0A233F"/>
<path d="M39.3725 9.63574H25.607V10.0595H39.3725V9.63574Z" fill="#0A233F"/>
<path d="M39.3725 8.88745H25.607V9.24824H39.3725V8.88745Z" fill="#0A233F"/>
<path d="M39.3725 8.13904H25.607V8.43681H39.3725V8.13904Z" fill="#0A233F"/>
<path d="M39.3725 7.39075H25.607V7.62551H39.3725V7.39075Z" fill="#0A233F"/>
<path d="M39.3725 17.2959H25.607V17.8981H39.3725V17.2959Z" fill="#0A233F"/>
<path d="M39.3725 18.0793H25.607V18.6308H39.3725V18.0793Z" fill="#0A233F"/>
<path d="M39.3725 18.8634H25.607V19.3642H39.3725V18.8634Z" fill="#0A233F"/>
<path d="M39.3725 19.6475H25.607V20.0975H39.3725V19.6475Z" fill="#0A233F"/>
<path d="M39.3725 20.4314H25.607V20.8307H39.3725V20.4314Z" fill="#0A233F"/>
<path d="M39.3725 21.2148H25.607V21.5634H39.3725V21.2148Z" fill="#0A233F"/>
<path d="M39.3725 21.9989H25.607V22.2967H39.3725V21.9989Z" fill="#0A233F"/>
<path d="M39.3725 22.783H25.607V23.03H39.3725V22.783Z" fill="#0A233F"/>
<path d="M39.3725 23.567H25.607V23.7633H39.3725V23.567Z" fill="#0A233F"/>
<path d="M39.3725 24.351H25.607V24.4965H39.3725V24.351Z" fill="#0A233F"/>
</g>
<path d="M110.744 7.51233H109.371V8.20713H110.744V7.51233Z" fill="#0A233F"/>
<path d="M111.62 7.75269H109.676V8.63931H111.62V7.75269Z" fill="#0A233F"/>
<path d="M95.6923 15.1106H93.7317V16.1037H95.6923V15.1106Z" fill="#0A233F"/>
<path d="M96.9439 15.4541H94.1673V16.721H96.9439V15.4541Z" fill="#0A233F"/>
<path d="M105.948 17.5485H103.987V18.5416H105.948V17.5485Z" fill="#0A233F"/>
<path d="M108.631 17.4119H104.371V18.6788H108.631V17.4119Z" fill="#0A233F"/>
<path d="M115 20.6578H110.089V22.7785H115V20.6578Z" fill="#0A233F"/>
<path d="M111.687 11.1854H108.907V12.7256H111.687V11.1854Z" fill="#0A233F"/>
<path d="M112.44 11.3538H110.803V12.2605H112.44V11.3538Z" fill="#0A233F"/>
<path d="M98.0502 8.30078H96.2753V9.28443H98.0502V8.30078Z" fill="#0A233F"/>
<path d="M109.8 23.1008V21.2578H111.58C111.72 20.6656 111.791 19.9987 111.791 19.2549C111.791 17.6612 111.465 16.4444 110.814 15.6063C110.161 14.7676 109.223 14.3489 107.998 14.3489H100.081C99.7824 14.3489 99.5391 14.2245 99.3506 13.9764C99.1621 13.7277 99.0678 13.3864 99.0678 12.9514C99.0678 12.0821 99.4054 11.6472 100.081 11.6472H108.631V10.915H110.66V8.07556H99.9161C99.3385 8.07556 98.8185 8.15196 98.3549 8.30196V9.61628H96.5526C95.9521 10.4577 95.6512 11.5998 95.6512 13.0446C95.6512 14.6182 96.0123 15.8238 96.7351 16.6624C97.4573 17.5011 98.5177 17.9199 99.9161 17.9199H107.385C108.045 17.9199 108.375 18.3967 108.375 19.3485C108.375 20.3004 108.045 20.8078 107.385 20.8078H93.1591V24.3789H107.998C109.174 24.3789 110.089 23.9523 110.746 23.1008H109.801H109.8Z" fill="#0A233F"/>
<path d="M57.8884 19.1901V19.01L60.4414 16.5163L63.5117 13.3657L67.4094 17.3277L61.7593 23.0701L58.135 19.378C58.0462 19.2877 57.9838 19.232 57.8884 19.1907V19.1901ZM61.767 21.6125L65.9759 17.3081L63.5243 14.8501C62.5237 15.8059 61.6185 16.7176 60.7094 17.684L59.3197 19.1305L61.767 21.6119V21.6125Z" fill="black"/>
<path d="M65.2548 9.03022C65.2608 9.1345 65.3129 9.19918 65.4038 9.29119L69.032 12.9843L66.3442 15.7189L65.6329 14.9656L67.5891 12.9699L65.1441 10.4823L60.9686 14.7308C61.0475 14.9104 61.1883 14.9896 61.3078 15.1017L60.5762 15.8466C60.2299 15.4736 59.8798 15.1201 59.5093 14.7604L65.1151 9.02966H65.2553L65.2548 9.03022Z" fill="black"/>
<path d="M61.8124 17.1002L62.5166 16.3569L63.3742 17.2307L64.3512 16.2777C64.5961 16.5359 64.7928 16.7539 65.0866 16.9954L63.3961 18.7235L61.8124 17.1002Z" fill="black"/>
<path d="M57.8884 19.1901V19.01L60.4414 16.5163L63.5117 13.3657L67.4094 17.3277L61.7593 23.0701L58.135 19.378C58.0462 19.2877 57.9838 19.232 57.8884 19.1907V19.1901ZM61.767 21.6125L65.9759 17.3081L63.5243 14.8501C62.5237 15.8059 61.6185 16.7176 60.7094 17.684L59.3197 19.1305L61.767 21.6119V21.6125Z" fill="#0A233F"/>
<path d="M65.2548 9.03022C65.2608 9.1345 65.3129 9.19918 65.4038 9.29119L69.032 12.9843L66.3442 15.7189L65.6329 14.9656L67.5891 12.9699L65.1441 10.4823L60.9686 14.7308C61.0475 14.9104 61.1883 14.9896 61.3078 15.1017L60.5762 15.8466C60.2299 15.4736 59.8798 15.1201 59.5093 14.7604L65.1151 9.02966H65.2553L65.2548 9.03022Z" fill="#0A233F"/>
<path d="M61.8124 17.1002L62.5166 16.3569L63.3742 17.2307L64.3512 16.2777C64.5961 16.5359 64.7928 16.7539 65.0866 16.9954L63.3961 18.7235L61.8124 17.1002Z" fill="#0A233F"/>
<defs>
<linearGradient id="paint0_linear_198_16517" x1="20.347" y1="13.8469" x2="11.1992" y2="13.8469" gradientUnits="userSpaceOnUse">
<stop offset="0.54" stop-color="white"/>
<stop offset="0.62" stop-color="white" stop-opacity="0.72"/>
<stop offset="0.69" stop-color="white" stop-opacity="0.47"/>
<stop offset="0.76" stop-color="white" stop-opacity="0.27"/>
<stop offset="0.82" stop-color="white" stop-opacity="0.12"/>
<stop offset="0.87" stop-color="white" stop-opacity="0.03"/>
<stop offset="0.9" stop-color="white" stop-opacity="0"/>
</linearGradient>
</defs>
</svg>
